<svg xmlns="http://www.w3.org/2000/svg" xmlns:xlink="http://www.w3.org/1999/xlink" width="3840" zoomAndPan="magnify" viewBox="0 0 2880 2160.000014" height="2880" preserveAspectRatio="xMidYMid meet" version="1.0"><defs><g/><clipPath id="18fbb9f98b"><path d="M 977.570312 1264.890625 L 1860.441406 1264.890625 L 1860.441406 1389 L 977.570312 1389 Z M 977.570312 1264.890625 " clip-rule="nonzero"/></clipPath></defs><path fill="#89573b" d="M 1244.273438 125.148438 C 1009.199219 125.148438 800.820312 295.386719 663.171875 445.171875 C 504.027344 618.183594 419.082031 846.324219 424.28125 1086.949219 C 427.054688 1210.382812 449.246094 1328.613281 489.117188 1429.507812 C 534.886719 1544.964844 602.496094 1636.847656 689.871094 1702.03125 C 771.695312 1763.054688 866.003906 1768.601562 982.5 1757.851562 C 1005.382812 1755.773438 1028.960938 1752.996094 1051.496094 1750.570312 C 1135.402344 1741.210938 1222.085938 1731.15625 1304.601562 1745.71875 L 1305.644531 1738.78125 L 1304.601562 1745.71875 C 1371.171875 1757.503906 1441.902344 1782.121094 1534.476562 1825.808594 C 1570.539062 1842.796875 1607.289062 1861.175781 1642.308594 1879.203125 L 1647.507812 1881.632812 C 1688.769531 1902.433594 1723.441406 1919.769531 1758.804688 1936.414062 C 1897.148438 2000.554688 2044.503906 2048.402344 2183.539062 1965.882812 C 2308.011719 1892.03125 2393.996094 1758.546875 2431.789062 1579.984375 C 2464.378906 1425.695312 2458.140625 1246.09375 2414.105469 1086.949219 C 2375.96875 949.996094 2268.484375 871.289062 2158.226562 806.453125 C 2123.554688 786.34375 2087.496094 766.925781 2052.476562 747.859375 L 2052.132812 747.511719 C 2026.820312 733.988281 2000.46875 719.773438 1974.8125 705.558594 C 1923.84375 677.128906 1858.316406 638.292969 1802.144531 589.40625 C 1753.605469 547.453125 1712.691406 496.484375 1682.179688 456.960938 C 1666.230469 436.15625 1650.628906 415.007812 1635.722656 394.550781 C 1615.609375 367.160156 1595.15625 339.421875 1574.351562 312.726562 C 1506.046875 226.390625 1426.300781 144.21875 1304.949219 128.964844 C 1284.492188 126.535156 1264.382812 125.148438 1244.273438 125.148438 Z M 898.59375 1748.492188 C 821.96875 1748.492188 756.441406 1734.621094 698.191406 1690.933594 C 612.898438 1627.140625 547.019531 1537.339844 502.292969 1424.308594 C 463.113281 1325.144531 440.925781 1208.648438 438.496094 1086.601562 C 433.296875 849.445312 516.855469 625.117188 673.574219 454.53125 C 820.582031 294.347656 1049.417969 110.585938 1303.214844 142.832031 C 1419.367188 157.394531 1497.03125 237.488281 1563.257812 321.390625 C 1584.058594 347.742188 1604.515625 375.480469 1624.277344 402.523438 C 1639.535156 423.328125 1655.136719 444.476562 1671.085938 465.628906 C 1701.945312 505.847656 1743.550781 557.507812 1792.785156 600.15625 C 1849.992188 649.390625 1916.214844 688.914062 1967.53125 717.691406 C 1993.1875 732.253906 2019.539062 746.125 2044.851562 759.992188 L 2045.195312 760.339844 C 2080.214844 779.0625 2116.273438 798.480469 2150.597656 818.589844 C 2258.429688 881.691406 2363.484375 958.316406 2400.238281 1090.761719 C 2443.578125 1247.480469 2450.164062 1424.65625 2417.921875 1577.210938 C 2371.113281 1797.726562 2260.507812 1903.820312 2176.257812 1954.09375 C 2042.769531 2033.492188 1899.574219 1986.6875 1764.355469 1923.929688 C 1728.988281 1907.636719 1694.664062 1890.296875 1653.402344 1869.496094 L 1648.203125 1867.070312 C 1612.835938 1849.039062 1576.429688 1830.664062 1540.027344 1813.671875 C 1476.921875 1783.855469 1393.710938 1747.796875 1306.683594 1732.542969 C 1222.085938 1717.632812 1134.363281 1727.6875 1049.417969 1737.394531 C 1026.882812 1739.824219 1003.304688 1742.597656 980.765625 1744.675781 C 952.335938 1746.757812 924.945312 1748.492188 898.59375 1748.492188 Z M 898.59375 1748.492188 " fill-opacity="1" fill-rule="nonzero"/><path fill="#89573b" d="M 1240.808594 125.148438 C 1005.730469 125.148438 797.351562 295.386719 659.703125 445.171875 C 500.558594 618.183594 415.613281 846.324219 420.816406 1086.949219 C 423.589844 1210.382812 445.777344 1328.613281 485.652344 1429.507812 C 531.417969 1544.964844 599.027344 1636.847656 686.402344 1702.03125 C 768.226562 1763.054688 862.535156 1768.601562 979.035156 1757.851562 C 1001.917969 1755.773438 1025.492188 1752.996094 1048.03125 1750.570312 C 1131.9375 1741.210938 1218.617188 1731.15625 1301.136719 1745.71875 L 1302.175781 1738.78125 L 1301.136719 1745.71875 C 1367.707031 1757.503906 1438.4375 1782.121094 1531.011719 1825.808594 C 1567.070312 1842.796875 1603.824219 1861.175781 1638.839844 1879.203125 L 1644.042969 1881.632812 C 1685.300781 1902.433594 1719.972656 1919.769531 1755.339844 1936.414062 C 1893.679688 2000.554688 2041.035156 2048.402344 2180.070312 1965.882812 C 2304.542969 1892.03125 2390.53125 1758.546875 2428.320312 1579.984375 C 2460.914062 1425.695312 2454.671875 1246.09375 2410.640625 1086.949219 C 2372.5 949.996094 2265.015625 871.289062 2154.761719 806.453125 C 2120.089844 786.34375 2084.027344 766.925781 2049.011719 747.859375 L 2048.664062 747.511719 C 2023.351562 733.988281 1997.003906 719.773438 1971.34375 705.558594 C 1920.378906 677.128906 1854.847656 638.292969 1798.679688 589.40625 C 1750.136719 547.453125 1709.226562 496.484375 1678.714844 456.960938 C 1662.765625 436.15625 1647.164062 415.007812 1632.253906 394.550781 C 1612.144531 367.160156 1591.6875 339.421875 1570.882812 312.726562 C 1502.582031 226.390625 1422.835938 144.21875 1301.484375 128.964844 C 1281.027344 126.535156 1260.917969 125.148438 1240.808594 125.148438 Z M 895.128906 1748.492188 C 818.503906 1748.492188 752.972656 1734.621094 694.722656 1690.933594 C 609.429688 1627.140625 543.554688 1537.339844 498.828125 1424.308594 C 459.648438 1325.144531 437.457031 1208.648438 435.03125 1086.601562 C 429.828125 849.445312 513.390625 625.117188 670.105469 454.53125 C 817.117188 294.347656 1045.949219 110.585938 1299.75 142.832031 C 1415.898438 157.394531 1493.566406 237.488281 1559.789062 321.390625 C 1580.59375 347.742188 1601.046875 375.480469 1620.8125 402.523438 C 1636.066406 423.328125 1651.667969 444.476562 1667.617188 465.628906 C 1698.476562 505.847656 1740.082031 557.507812 1789.316406 600.15625 C 1846.527344 649.390625 1912.75 688.914062 1964.0625 717.691406 C 1989.722656 732.253906 2016.070312 746.125 2041.382812 759.992188 L 2041.730469 760.339844 C 2076.746094 779.0625 2112.808594 798.480469 2147.132812 818.589844 C 2254.960938 881.691406 2360.019531 958.316406 2396.769531 1090.761719 C 2440.109375 1247.480469 2446.699219 1424.65625 2414.453125 1577.210938 C 2367.644531 1797.726562 2257.042969 1903.820312 2172.789062 1954.09375 C 2039.300781 2033.492188 1896.105469 1986.6875 1760.886719 1923.929688 C 1725.519531 1907.636719 1691.195312 1890.296875 1649.9375 1869.496094 L 1644.734375 1867.070312 C 1609.371094 1849.039062 1572.964844 1830.664062 1536.558594 1813.671875 C 1473.457031 1783.855469 1390.242188 1747.796875 1303.214844 1732.542969 C 1218.617188 1717.632812 1130.898438 1727.6875 1045.949219 1737.394531 C 1023.414062 1739.824219 999.835938 1742.597656 977.300781 1744.675781 C 948.867188 1746.757812 921.476562 1748.492188 895.128906 1748.492188 Z M 895.128906 1748.492188 " fill-opacity="1" fill-rule="nonzero"/><path fill="#89573b" d="M 1278.597656 299.203125 C 1086.863281 299.203125 916.972656 438.238281 804.632812 560.28125 C 674.960938 701.050781 605.617188 886.890625 609.777344 1083.136719 C 611.859375 1183.683594 630.234375 1280.417969 662.824219 1362.246094 C 700.269531 1456.550781 755.398438 1531.445312 826.476562 1584.839844 C 893.394531 1634.765625 970.367188 1639.273438 1065.714844 1630.605469 C 1084.089844 1628.871094 1103.507812 1626.792969 1121.882812 1624.710938 C 1190.1875 1617.082031 1260.917969 1609.109375 1327.832031 1620.898438 C 1381.921875 1630.257812 1439.476562 1650.367188 1514.714844 1685.734375 L 1517.835938 1679.492188 L 1514.714844 1685.734375 C 1544.1875 1699.601562 1573.65625 1714.511719 1602.433594 1729.074219 L 1606.597656 1731.15625 C 1639.1875 1747.449219 1668.3125 1762.359375 1697.4375 1775.882812 C 1810.46875 1828.234375 1930.777344 1867.414062 2044.503906 1799.804688 C 2146.09375 1739.476562 2216.476562 1630.605469 2247.335938 1484.636719 C 2274.03125 1358.777344 2268.832031 1212.460938 2232.773438 1082.789062 C 2201.566406 970.796875 2113.847656 906.65625 2023.699219 853.953125 C 1995.617188 837.65625 1966.144531 821.710938 1937.367188 806.453125 L 1937.019531 806.105469 C 1916.5625 795.011719 1895.066406 783.570312 1874.265625 771.78125 C 1833.003906 748.550781 1779.609375 717 1733.84375 677.472656 C 1694.316406 643.496094 1661.03125 601.890625 1636.414062 569.644531 C 1623.585938 552.65625 1610.757812 535.320312 1598.621094 518.675781 C 1582.324219 496.484375 1565.683594 473.601562 1548.695312 452.105469 C 1492.871094 381.375 1427.6875 314.457031 1328.527344 301.976562 C 1311.539062 299.894531 1294.894531 299.203125 1278.597656 299.203125 Z M 997.410156 1620.550781 C 935.347656 1620.550781 881.953125 1609.109375 834.796875 1574.089844 C 765.453125 1522.429688 712.058594 1449.617188 675.652344 1357.738281 C 643.753906 1277.296875 625.726562 1182.296875 623.644531 1083.480469 C 619.484375 890.707031 687.441406 708.332031 814.6875 569.992188 C 934.308594 439.972656 1120.148438 290.1875 1326.101562 316.539062 C 1420.0625 328.328125 1483.164062 393.164062 1536.90625 461.46875 C 1553.894531 482.617188 1569.496094 504.460938 1586.484375 527.34375 C 1598.96875 544.332031 1611.796875 561.667969 1624.625 578.660156 C 1649.589844 611.597656 1683.566406 653.550781 1724.132812 688.570312 C 1770.59375 728.789062 1824.683594 761.03125 1866.636719 784.609375 C 1887.785156 796.398438 1908.9375 807.839844 1929.738281 818.933594 L 1930.085938 819.28125 C 1958.515625 834.539062 1987.988281 850.488281 2016.070312 866.78125 C 2103.792969 918.097656 2188.738281 980.160156 2218.554688 1087.644531 C 2253.921875 1215.234375 2259.121094 1359.125 2232.773438 1482.902344 C 2211.96875 1581.71875 2160.652344 1715.207031 2036.527344 1788.710938 C 1928.351562 1852.851562 1812.199219 1815.0625 1702.636719 1764.09375 C 1673.859375 1750.917969 1644.734375 1736.007812 1612.488281 1719.710938 L 1608.328125 1717.632812 C 1579.550781 1703.070312 1549.734375 1687.816406 1520.261719 1673.945312 C 1468.949219 1649.675781 1400.992188 1620.203125 1329.914062 1607.722656 C 1260.917969 1595.585938 1189.492188 1603.5625 1120.148438 1611.535156 C 1101.773438 1613.617188 1082.703125 1615.695312 1064.328125 1617.429688 C 1041.097656 1619.164062 1018.558594 1620.550781 997.410156 1620.550781 Z M 997.410156 1620.550781 " fill-opacity="1" fill-rule="nonzero"/><path fill="#89573b" d="M 1316.390625 472.910156 C 1167.648438 472.910156 1036.242188 580.390625 949.5625 674.699219 C 849.015625 783.917969 795.617188 927.804688 798.738281 1079.667969 C 800.472656 1157.332031 814.6875 1232.226562 839.652344 1295.675781 C 868.429688 1368.832031 911.421875 1426.734375 966.550781 1467.996094 C 1018.558594 1506.828125 1078.542969 1510.292969 1152.394531 1503.707031 C 1166.609375 1502.320312 1181.519531 1500.585938 1195.734375 1499.199219 C 1248.433594 1493.304688 1302.871094 1487.0625 1354.183594 1496.078125 L 1355.222656 1489.144531 L 1354.183594 1496.078125 C 1395.789062 1503.359375 1440.171875 1518.960938 1497.726562 1546.007812 C 1520.261719 1556.753906 1543.144531 1568.195312 1565.335938 1579.636719 L 1568.457031 1581.371094 C 1594.460938 1594.546875 1616.304688 1605.296875 1638.496094 1615.695312 C 1726.214844 1656.261719 1819.136719 1686.429688 1907.546875 1634.074219 C 1986.601562 1587.265625 2040.6875 1502.667969 2064.613281 1389.984375 C 2085.414062 1292.554688 2081.253906 1179.175781 2053.519531 1079.320312 C 2029.246094 992.296875 1961.289062 942.367188 1891.597656 901.800781 C 1870.101562 888.972656 1847.21875 876.835938 1825.03125 865.050781 C 1809.082031 856.382812 1792.4375 847.714844 1776.140625 838.351562 C 1744.242188 820.667969 1703.332031 796.050781 1667.964844 765.886719 C 1637.800781 739.882812 1612.144531 707.984375 1593.074219 683.019531 C 1583.019531 669.847656 1573.3125 656.671875 1563.949219 643.84375 L 1563.601562 643.496094 C 1551.121094 626.507812 1538.292969 609.171875 1525.117188 592.527344 C 1481.777344 537.746094 1431.15625 485.738281 1354.183594 476.03125 C 1342.050781 473.601562 1329.21875 472.910156 1316.390625 472.910156 Z M 1099.34375 1492.613281 C 1051.84375 1492.613281 1010.933594 1483.945312 974.871094 1456.898438 C 875.363281 1382.355469 816.074219 1244.707031 812.609375 1079.320312 C 809.488281 931.273438 861.84375 790.851562 959.617188 684.0625 C 1051.496094 583.859375 1194.691406 468.75 1352.796875 488.859375 C 1424.914062 497.871094 1473.109375 547.800781 1514.367188 600.15625 C 1527.199219 616.449219 1539.332031 633.09375 1552.507812 650.777344 L 1552.855469 651.125 C 1562.214844 663.953125 1572.269531 677.472656 1582.324219 690.648438 C 1601.742188 715.960938 1628.09375 748.550781 1659.296875 775.59375 C 1695.355469 806.800781 1737.308594 831.765625 1769.554688 849.792969 C 1785.851562 858.808594 1802.492188 867.824219 1818.441406 876.492188 C 1840.632812 888.28125 1863.167969 900.414062 1884.664062 913.242188 C 1951.929688 952.769531 2017.457031 1000.269531 2040.34375 1082.789062 C 2067.386719 1180.910156 2071.546875 1291.859375 2051.4375 1386.863281 C 2035.488281 1462.792969 1995.960938 1565.421875 1900.613281 1621.9375 C 1817.75 1671.171875 1728.640625 1642.046875 1644.386719 1602.867188 C 1622.199219 1592.46875 1600.703125 1581.71875 1574.699219 1568.542969 L 1571.578125 1566.808594 C 1549.386719 1555.714844 1526.503906 1543.925781 1503.621094 1533.179688 C 1463.746094 1514.453125 1411.394531 1491.570312 1356.265625 1482.210938 C 1302.871094 1472.847656 1247.394531 1479.089844 1194 1484.984375 C 1179.785156 1486.71875 1164.875 1488.449219 1151.007812 1489.492188 C 1132.976562 1491.570312 1115.988281 1492.613281 1099.34375 1492.613281 Z M 1099.34375 1492.613281 " fill-opacity="1" fill-rule="nonzero"/><g fill="#33443c" fill-opacity="1"><g transform="translate(977.568805, 1237.438585)"><g><path d="M 124.96875 -119.828125 C 127.25 -119.828125 128.390625 -118.6875 128.390625 -116.40625 L 128.390625 -98.4375 C 128.390625 -96.15625 127.25 -95.015625 124.96875 -95.015625 L 78.578125 -95.015625 L 78.578125 -3.421875 C 78.578125 -1.140625 77.4375 0 75.15625 0 L 54.609375 0 C 52.328125 0 51.1875 -1.140625 51.1875 -3.421875 L 51.1875 -95.015625 L 4.796875 -95.015625 C 2.515625 -95.015625 1.375 -96.15625 1.375 -98.4375 L 1.375 -116.40625 C 1.375 -118.6875 2.515625 -119.828125 4.796875 -119.828125 Z M 124.96875 -119.828125 "/></g></g></g><g fill="#33443c" fill-opacity="1"><g transform="translate(1107.319285, 1237.438585)"><g><path d="M 136.78125 -4.96875 C 137.125 -4.28125 137.296875 -3.59375 137.296875 -2.90625 C 137.296875 -0.96875 135.984375 0 133.359375 0 L 113.84375 0 C 112.582031 0 111.582031 -0.226562 110.84375 -0.6875 C 110.101562 -1.144531 109.445312 -2 108.875 -3.25 L 99.28125 -24.3125 L 35.953125 -24.3125 L 26.1875 -3.25 C 25.726562 -2.113281 25.097656 -1.285156 24.296875 -0.765625 C 23.503906 -0.253906 22.484375 0 21.234375 0 L 1.546875 0 C 0.285156 0 -0.65625 -0.285156 -1.28125 -0.859375 C -1.90625 -1.429688 -2.21875 -2.226562 -2.21875 -3.25 C -2.21875 -3.9375 -2.050781 -4.625 -1.71875 -5.3125 L 52.046875 -116.75 C 52.609375 -117.894531 53.257812 -118.691406 54 -119.140625 C 54.75 -119.597656 55.75 -119.828125 57 -119.828125 L 78.234375 -119.828125 C 79.484375 -119.828125 80.476562 -119.597656 81.21875 -119.140625 C 81.96875 -118.691406 82.628906 -117.894531 83.203125 -116.75 Z M 67.109375 -92.265625 L 54.609375 -65.734375 L 45.53125 -46.5625 L 89.53125 -46.5625 L 68.296875 -92.265625 Z M 67.109375 -92.265625 "/></g></g></g><g fill="#33443c" fill-opacity="1"><g transform="translate(1242.376187, 1237.438585)"><g><path d="M 134.375 -71.5625 C 134.375 -61.851562 132.148438 -54.773438 127.703125 -50.328125 C 123.253906 -45.878906 116.238281 -43.65625 106.65625 -43.65625 L 96.203125 -43.65625 L 132.5 -5.828125 C 133.414062 -4.679688 133.875 -3.707031 133.875 -2.90625 C 133.875 -2 133.554688 -1.285156 132.921875 -0.765625 C 132.296875 -0.253906 131.414062 0 130.28125 0 L 107.671875 0 C 105.390625 0 103.394531 -0.851562 101.6875 -2.5625 L 62.65625 -43.65625 L 43.65625 -43.65625 L 43.65625 -3.421875 C 43.65625 -1.140625 42.515625 0 40.234375 0 L 19.6875 0 C 17.40625 0 16.265625 -1.140625 16.265625 -3.421875 L 16.265625 -116.40625 C 16.265625 -118.6875 17.40625 -119.828125 19.6875 -119.828125 L 106.65625 -119.828125 C 116.238281 -119.828125 123.253906 -117.601562 127.703125 -113.15625 C 132.148438 -108.707031 134.375 -101.6875 134.375 -92.09375 Z M 96.71875 -64.875 C 100.375 -64.875 103 -65.671875 104.59375 -67.265625 C 106.1875 -68.867188 106.984375 -71.5 106.984375 -75.15625 L 106.984375 -87.640625 C 106.984375 -91.296875 106.1875 -93.921875 104.59375 -95.515625 C 103 -97.117188 100.375 -97.921875 96.71875 -97.921875 L 43.65625 -97.921875 L 43.65625 -64.875 Z M 96.71875 -64.875 "/></g></g></g><g fill="#33443c" fill-opacity="1"><g transform="translate(1388.559445, 1237.438585)"><g><path d="M 19.6875 0 C 17.40625 0 16.265625 -1.140625 16.265625 -3.421875 L 16.265625 -116.40625 C 16.265625 -118.6875 17.40625 -119.828125 19.6875 -119.828125 L 47.9375 -119.828125 C 49.1875 -119.828125 50.179688 -119.597656 50.921875 -119.140625 C 51.671875 -118.691406 52.328125 -117.894531 52.890625 -116.75 L 94.84375 -32.703125 L 96.203125 -32.703125 L 138.140625 -116.75 C 138.597656 -117.894531 139.195312 -118.691406 139.9375 -119.140625 C 140.6875 -119.597656 141.6875 -119.828125 142.9375 -119.828125 L 171.1875 -119.828125 C 173.46875 -119.828125 174.609375 -118.6875 174.609375 -116.40625 L 174.609375 -3.421875 C 174.609375 -1.140625 173.46875 0 171.1875 0 L 150.984375 0 C 149.734375 0 148.820312 -0.253906 148.25 -0.765625 C 147.675781 -1.285156 147.390625 -2.171875 147.390625 -3.421875 L 147.390625 -78.0625 L 146.1875 -78.0625 L 108.53125 -3.25 C 107.957031 -2.113281 107.300781 -1.285156 106.5625 -0.765625 C 105.820312 -0.253906 104.820312 0 103.5625 0 L 87.3125 0 C 86.164062 0 85.222656 -0.253906 84.484375 -0.765625 C 83.742188 -1.285156 83.085938 -2.113281 82.515625 -3.25 L 44.84375 -78.0625 L 43.484375 -78.0625 L 43.484375 -3.421875 C 43.484375 -1.140625 42.34375 0 40.0625 0 Z M 19.6875 0 "/></g></g></g><g fill="#33443c" fill-opacity="1"><g transform="translate(1579.419349, 1237.438585)"><g><path d="M 136.78125 -4.96875 C 137.125 -4.28125 137.296875 -3.59375 137.296875 -2.90625 C 137.296875 -0.96875 135.984375 0 133.359375 0 L 113.84375 0 C 112.582031 0 111.582031 -0.226562 110.84375 -0.6875 C 110.101562 -1.144531 109.445312 -2 108.875 -3.25 L 99.28125 -24.3125 L 35.953125 -24.3125 L 26.1875 -3.25 C 25.726562 -2.113281 25.097656 -1.285156 24.296875 -0.765625 C 23.503906 -0.253906 22.484375 0 21.234375 0 L 1.546875 0 C 0.285156 0 -0.65625 -0.285156 -1.28125 -0.859375 C -1.90625 -1.429688 -2.21875 -2.226562 -2.21875 -3.25 C -2.21875 -3.9375 -2.050781 -4.625 -1.71875 -5.3125 L 52.046875 -116.75 C 52.609375 -117.894531 53.257812 -118.691406 54 -119.140625 C 54.75 -119.597656 55.75 -119.828125 57 -119.828125 L 78.234375 -119.828125 C 79.484375 -119.828125 80.476562 -119.597656 81.21875 -119.140625 C 81.96875 -118.691406 82.628906 -117.894531 83.203125 -116.75 Z M 67.109375 -92.265625 L 54.609375 -65.734375 L 45.53125 -46.5625 L 89.53125 -46.5625 L 68.296875 -92.265625 Z M 67.109375 -92.265625 "/></g></g></g><g fill="#33443c" fill-opacity="1"><g transform="translate(1714.476224, 1237.438585)"><g><path d="M 46.046875 0.515625 C 25.503906 0.515625 15.234375 -9.8125 15.234375 -30.46875 L 15.234375 -89.53125 C 15.234375 -110.070312 25.503906 -120.34375 46.046875 -120.34375 L 112.46875 -120.34375 C 133.007812 -120.34375 143.28125 -110.070312 143.28125 -89.53125 L 143.28125 -79.265625 C 143.28125 -78.003906 142.992188 -77.117188 142.421875 -76.609375 C 141.859375 -76.097656 140.945312 -75.84375 139.6875 -75.84375 L 118.296875 -75.84375 C 116.117188 -75.84375 115.03125 -76.984375 115.03125 -79.265625 L 115.03125 -85.59375 C 115.03125 -89.582031 114.085938 -92.519531 112.203125 -94.40625 C 110.328125 -96.289062 107.28125 -97.234375 103.0625 -97.234375 L 54.78125 -97.234375 C 50.5625 -97.234375 47.476562 -96.265625 45.53125 -94.328125 C 43.59375 -92.390625 42.625 -89.304688 42.625 -85.078125 L 42.625 -34.75 C 42.625 -30.53125 43.59375 -27.476562 45.53125 -25.59375 C 47.476562 -23.707031 50.5625 -22.765625 54.78125 -22.765625 L 103.0625 -22.765625 C 107.28125 -22.765625 110.328125 -23.707031 112.203125 -25.59375 C 114.085938 -27.476562 115.03125 -30.414062 115.03125 -34.40625 L 115.03125 -40.75 C 115.03125 -43.03125 116.117188 -44.171875 118.296875 -44.171875 L 139.6875 -44.171875 C 140.945312 -44.171875 141.859375 -43.910156 142.421875 -43.390625 C 142.992188 -42.878906 143.28125 -42 143.28125 -40.75 L 143.28125 -30.46875 C 143.28125 -9.8125 133.007812 0.515625 112.46875 0.515625 Z M 46.046875 0.515625 "/></g></g></g><g clip-path="url(#18fbb9f98b)"><path fill="#89573b" d="M 977.570312 1264.890625 L 1860.390625 1264.890625 L 1860.390625 1389 L 977.570312 1389 Z M 977.570312 1264.890625 " fill-opacity="1" fill-rule="nonzero"/></g><g fill="#89573b" fill-opacity="1"><g transform="translate(977.855664, 938.320002)"><g><path d="M 3.03125 0 C 2.664062 0 2.378906 -0.117188 2.171875 -0.359375 C 1.972656 -0.597656 1.875 -0.863281 1.875 -1.15625 L 1.875 -19.03125 C 1.875 -19.3125 1.972656 -19.570312 2.171875 -19.8125 C 2.378906 -20.0625 2.664062 -20.1875 3.03125 -20.1875 L 11.53125 -20.1875 C 11.894531 -20.1875 12.175781 -20.085938 12.375 -19.890625 C 12.582031 -19.703125 12.6875 -19.460938 12.6875 -19.171875 C 12.6875 -18.878906 12.582031 -18.632812 12.375 -18.4375 C 12.175781 -18.25 11.894531 -18.15625 11.53125 -18.15625 L 4.1875 -18.15625 L 4.1875 -11.25 L 9.515625 -11.25 C 9.878906 -11.25 10.160156 -11.148438 10.359375 -10.953125 C 10.566406 -10.765625 10.671875 -10.523438 10.671875 -10.234375 C 10.671875 -9.941406 10.566406 -9.695312 10.359375 -9.5 C 10.160156 -9.3125 9.878906 -9.21875 9.515625 -9.21875 L 4.1875 -9.21875 L 4.1875 -2.015625 L 11.671875 -2.015625 C 12.035156 -2.015625 12.316406 -1.914062 12.515625 -1.71875 C 12.722656 -1.53125 12.828125 -1.296875 12.828125 -1.015625 C 12.828125 -0.722656 12.722656 -0.476562 12.515625 -0.28125 C 12.316406 -0.09375 12.035156 0 11.671875 0 Z M 3.03125 0 "/></g></g></g><g fill="#89573b" fill-opacity="1"><g transform="translate(1002.879588, 938.320002)"><g><path d="M 6.203125 0.578125 C 5.472656 0.578125 4.832031 0.492188 4.28125 0.328125 C 3.726562 0.171875 3.242188 -0.046875 2.828125 -0.328125 C 2.421875 -0.609375 2.066406 -0.929688 1.765625 -1.296875 C 1.472656 -1.660156 1.222656 -2.046875 1.015625 -2.453125 C 0.929688 -2.617188 0.851562 -2.78125 0.78125 -2.9375 C 0.644531 -3.25 0.578125 -3.519531 0.578125 -3.75 C 0.578125 -4.039062 0.675781 -4.304688 0.875 -4.546875 C 1.082031 -4.785156 1.367188 -4.90625 1.734375 -4.90625 C 2.015625 -4.90625 2.242188 -4.8125 2.421875 -4.625 C 2.609375 -4.445312 2.765625 -4.203125 2.890625 -3.890625 C 3.171875 -3.160156 3.578125 -2.566406 4.109375 -2.109375 C 4.640625 -1.660156 5.335938 -1.4375 6.203125 -1.4375 C 7.210938 -1.4375 8.039062 -1.769531 8.6875 -2.4375 C 9.332031 -3.113281 9.65625 -4.03125 9.65625 -5.1875 C 9.65625 -6 9.441406 -6.660156 9.015625 -7.171875 C 8.597656 -7.691406 8.066406 -8.140625 7.421875 -8.515625 C 6.773438 -8.890625 6.078125 -9.25 5.328125 -9.59375 C 4.578125 -9.945312 3.878906 -10.367188 3.234375 -10.859375 C 2.597656 -11.347656 2.066406 -11.945312 1.640625 -12.65625 C 1.222656 -13.363281 1.015625 -14.285156 1.015625 -15.421875 C 1.015625 -16.210938 1.140625 -16.929688 1.390625 -17.578125 C 1.648438 -18.234375 2.007812 -18.796875 2.46875 -19.265625 C 2.9375 -19.742188 3.488281 -20.109375 4.125 -20.359375 C 4.757812 -20.617188 5.453125 -20.75 6.203125 -20.75 C 6.847656 -20.75 7.429688 -20.664062 7.953125 -20.5 C 8.472656 -20.34375 8.941406 -20.125 9.359375 -19.84375 C 9.785156 -19.570312 10.148438 -19.25 10.453125 -18.875 C 10.765625 -18.507812 11.03125 -18.128906 11.25 -17.734375 C 11.28125 -17.617188 11.328125 -17.503906 11.390625 -17.390625 C 11.421875 -17.285156 11.453125 -17.171875 11.484375 -17.046875 C 11.515625 -16.921875 11.53125 -16.8125 11.53125 -16.71875 C 11.53125 -16.351562 11.429688 -16.066406 11.234375 -15.859375 C 11.046875 -15.660156 10.804688 -15.5625 10.515625 -15.5625 C 9.960938 -15.5625 9.53125 -15.898438 9.21875 -16.578125 C 8.9375 -17.234375 8.546875 -17.753906 8.046875 -18.140625 C 7.546875 -18.535156 6.929688 -18.734375 6.203125 -18.734375 C 5.390625 -18.734375 4.703125 -18.4375 4.140625 -17.84375 C 3.585938 -17.25 3.3125 -16.441406 3.3125 -15.421875 C 3.3125 -14.597656 3.519531 -13.929688 3.9375 -13.421875 C 4.363281 -12.910156 4.898438 -12.46875 5.546875 -12.09375 C 6.191406 -11.71875 6.890625 -11.359375 7.640625 -11.015625 C 8.390625 -10.671875 9.082031 -10.25 9.71875 -9.75 C 10.363281 -9.257812 10.898438 -8.660156 11.328125 -7.953125 C 11.753906 -7.242188 11.96875 -6.320312 11.96875 -5.1875 C 11.96875 -4.320312 11.828125 -3.535156 11.546875 -2.828125 C 11.265625 -2.117188 10.875 -1.515625 10.375 -1.015625 C 9.875 -0.515625 9.269531 -0.125 8.5625 0.15625 C 7.851562 0.4375 7.066406 0.578125 6.203125 0.578125 Z M 6.203125 0.578125 "/></g></g></g><g fill="#89573b" fill-opacity="1"><g transform="translate(1027.471089, 938.320002)"><g><path d="M 6.046875 0.28125 C 5.679688 0.28125 5.398438 0.160156 5.203125 -0.078125 C 5.003906 -0.316406 4.90625 -0.578125 4.90625 -0.859375 L 4.90625 -18.15625 L 1.296875 -18.15625 C 0.929688 -18.15625 0.644531 -18.25 0.4375 -18.4375 C 0.238281 -18.632812 0.140625 -18.878906 0.140625 -19.171875 C 0.140625 -19.460938 0.238281 -19.703125 0.4375 -19.890625 C 0.644531 -20.085938 0.929688 -20.1875 1.296875 -20.1875 L 10.8125 -20.1875 C 11.175781 -20.1875 11.457031 -20.085938 11.65625 -19.890625 C 11.863281 -19.703125 11.96875 -19.460938 11.96875 -19.171875 C 11.96875 -18.878906 11.863281 -18.632812 11.65625 -18.4375 C 11.457031 -18.25 11.175781 -18.15625 10.8125 -18.15625 L 7.203125 -18.15625 L 7.203125 -0.859375 C 7.203125 -0.578125 7.101562 -0.316406 6.90625 -0.078125 C 6.707031 0.160156 6.421875 0.28125 6.046875 0.28125 Z M 6.046875 0.28125 "/></g></g></g><g fill="#89573b" fill-opacity="1"><g transform="translate(1051.341851, 938.320002)"><g><path d="M 3.03125 0 C 2.664062 0 2.378906 -0.117188 2.171875 -0.359375 C 1.972656 -0.597656 1.875 -0.863281 1.875 -1.15625 L 1.875 -19.03125 C 1.875 -19.3125 1.972656 -19.570312 2.171875 -19.8125 C 2.378906 -20.0625 2.664062 -20.1875 3.03125 -20.1875 L 7.0625 -20.1875 C 7.96875 -20.1875 8.789062 -20.035156 9.53125 -19.734375 C 10.269531 -19.429688 10.90625 -19.007812 11.4375 -18.46875 C 11.976562 -17.9375 12.390625 -17.289062 12.671875 -16.53125 C 12.960938 -15.769531 13.109375 -14.921875 13.109375 -13.984375 L 13.109375 -6.203125 C 13.109375 -5.253906 12.960938 -4.398438 12.671875 -3.640625 C 12.390625 -2.890625 11.976562 -2.242188 11.4375 -1.703125 C 10.90625 -1.160156 10.269531 -0.738281 9.53125 -0.4375 C 8.789062 -0.144531 7.96875 0 7.0625 0 Z M 7.0625 -2.015625 C 8.15625 -2.015625 9.050781 -2.382812 9.75 -3.125 C 10.457031 -3.863281 10.8125 -4.890625 10.8125 -6.203125 L 10.8125 -13.984375 C 10.8125 -15.285156 10.457031 -16.304688 9.75 -17.046875 C 9.050781 -17.785156 8.15625 -18.15625 7.0625 -18.15625 L 4.1875 -18.15625 L 4.1875 -2.015625 Z M 7.0625 -2.015625 "/></g></g></g><g fill="#89573b" fill-opacity="1"><g transform="translate(1077.951396, 938.320002)"><g><path d="M 2.3125 0.28125 C 1.945312 0.28125 1.640625 0.15625 1.390625 -0.09375 C 1.140625 -0.351562 1.015625 -0.707031 1.015625 -1.15625 C 1.015625 -1.59375 1.140625 -1.941406 1.390625 -2.203125 C 1.640625 -2.460938 1.945312 -2.59375 2.3125 -2.59375 C 2.675781 -2.59375 2.984375 -2.460938 3.234375 -2.203125 C 3.484375 -1.941406 3.609375 -1.59375 3.609375 -1.15625 C 3.609375 -0.707031 3.484375 -0.351562 3.234375 -0.09375 C 2.984375 0.15625 2.675781 0.28125 2.3125 0.28125 Z M 2.3125 0.28125 "/></g></g></g><g fill="#89573b" fill-opacity="1"><g transform="translate(1094.326475, 938.320002)"><g/></g></g><g fill="#89573b" fill-opacity="1"><g transform="translate(1111.278154, 938.320002)"><g><path d="M 1.734375 0 C 0.960938 0 0.578125 -0.382812 0.578125 -1.15625 C 0.578125 -1.320312 0.601562 -1.488281 0.65625 -1.65625 C 0.71875 -1.820312 0.785156 -1.960938 0.859375 -2.078125 C 0.941406 -2.210938 1.039062 -2.335938 1.15625 -2.453125 C 2.0625 -3.484375 2.984375 -4.523438 3.921875 -5.578125 C 4.859375 -6.640625 5.707031 -7.691406 6.46875 -8.734375 C 7.226562 -9.773438 7.851562 -10.796875 8.34375 -11.796875 C 8.832031 -12.796875 9.078125 -13.765625 9.078125 -14.703125 C 9.078125 -15.359375 8.992188 -15.9375 8.828125 -16.4375 C 8.671875 -16.9375 8.453125 -17.359375 8.171875 -17.703125 C 7.890625 -18.046875 7.566406 -18.300781 7.203125 -18.46875 C 6.835938 -18.644531 6.453125 -18.734375 6.046875 -18.734375 C 5.316406 -18.734375 4.726562 -18.535156 4.28125 -18.140625 C 3.832031 -17.753906 3.460938 -17.234375 3.171875 -16.578125 C 3.035156 -16.285156 2.859375 -16.039062 2.640625 -15.84375 C 2.421875 -15.65625 2.164062 -15.5625 1.875 -15.5625 C 1.582031 -15.5625 1.335938 -15.660156 1.140625 -15.859375 C 0.953125 -16.066406 0.859375 -16.351562 0.859375 -16.71875 C 0.859375 -16.925781 0.910156 -17.148438 1.015625 -17.390625 C 1.046875 -17.503906 1.09375 -17.617188 1.15625 -17.734375 C 1.363281 -18.128906 1.613281 -18.507812 1.90625 -18.875 C 2.207031 -19.25 2.554688 -19.570312 2.953125 -19.84375 C 3.347656 -20.125 3.800781 -20.34375 4.3125 -20.5 C 4.820312 -20.664062 5.398438 -20.75 6.046875 -20.75 C 6.796875 -20.75 7.5 -20.601562 8.15625 -20.3125 C 8.8125 -20.03125 9.378906 -19.617188 9.859375 -19.078125 C 10.335938 -18.546875 10.710938 -17.910156 10.984375 -17.171875 C 11.253906 -16.429688 11.390625 -15.609375 11.390625 -14.703125 C 11.390625 -13.660156 11.164062 -12.628906 10.71875 -11.609375 C 10.28125 -10.597656 9.695312 -9.578125 8.96875 -8.546875 C 8.238281 -7.515625 7.40625 -6.46875 6.46875 -5.40625 C 5.539062 -4.351562 4.585938 -3.269531 3.609375 -2.15625 L 3.609375 -2.015625 L 10.375 -2.015625 C 10.738281 -2.015625 11.019531 -1.914062 11.21875 -1.71875 C 11.425781 -1.53125 11.53125 -1.296875 11.53125 -1.015625 C 11.53125 -0.722656 11.425781 -0.476562 11.21875 -0.28125 C 11.019531 -0.09375 10.738281 0 10.375 0 Z M 1.734375 0 "/></g></g></g><g fill="#89573b" fill-opacity="1"><g transform="translate(1135.725525, 938.320002)"><g><path d="M 7.34375 0.578125 C 6.5625 0.578125 5.820312 0.425781 5.125 0.125 C 4.4375 -0.164062 3.84375 -0.582031 3.34375 -1.125 C 2.84375 -1.664062 2.445312 -2.3125 2.15625 -3.0625 C 1.875 -3.820312 1.734375 -4.675781 1.734375 -5.625 L 1.734375 -14.5625 C 1.734375 -15.5 1.875 -16.347656 2.15625 -17.109375 C 2.445312 -17.867188 2.84375 -18.515625 3.34375 -19.046875 C 3.84375 -19.585938 4.4375 -20.003906 5.125 -20.296875 C 5.820312 -20.597656 6.5625 -20.75 7.34375 -20.75 C 8.132812 -20.75 8.867188 -20.597656 9.546875 -20.296875 C 10.234375 -20.003906 10.832031 -19.585938 11.34375 -19.046875 C 11.851562 -18.515625 12.25 -17.867188 12.53125 -17.109375 C 12.820312 -16.347656 12.96875 -15.5 12.96875 -14.5625 L 12.96875 -5.625 C 12.96875 -4.675781 12.820312 -3.820312 12.53125 -3.0625 C 12.25 -2.3125 11.851562 -1.664062 11.34375 -1.125 C 10.832031 -0.582031 10.234375 -0.164062 9.546875 0.125 C 8.867188 0.425781 8.132812 0.578125 7.34375 0.578125 Z M 7.34375 -1.4375 C 7.769531 -1.4375 8.1875 -1.53125 8.59375 -1.71875 C 9 -1.914062 9.351562 -2.191406 9.65625 -2.546875 C 9.96875 -2.898438 10.210938 -3.335938 10.390625 -3.859375 C 10.578125 -4.378906 10.671875 -4.96875 10.671875 -5.625 L 10.671875 -14.5625 C 10.671875 -15.207031 10.578125 -15.785156 10.390625 -16.296875 C 10.210938 -16.804688 9.96875 -17.242188 9.65625 -17.609375 C 9.351562 -17.972656 9 -18.25 8.59375 -18.4375 C 8.1875 -18.632812 7.769531 -18.734375 7.34375 -18.734375 C 6.90625 -18.734375 6.488281 -18.632812 6.09375 -18.4375 C 5.695312 -18.25 5.34375 -17.972656 5.03125 -17.609375 C 4.726562 -17.242188 4.484375 -16.804688 4.296875 -16.296875 C 4.117188 -15.785156 4.03125 -15.207031 4.03125 -14.5625 L 4.03125 -5.625 C 4.03125 -4.96875 4.117188 -4.378906 4.296875 -3.859375 C 4.484375 -3.335938 4.726562 -2.898438 5.03125 -2.546875 C 5.34375 -2.191406 5.695312 -1.914062 6.09375 -1.71875 C 6.488281 -1.53125 6.90625 -1.4375 7.34375 -1.4375 Z M 7.34375 -1.4375 "/></g></g></g><g fill="#89573b" fill-opacity="1"><g transform="translate(1162.190919, 938.320002)"><g><path d="M 6.046875 0.28125 C 5.679688 0.28125 5.398438 0.160156 5.203125 -0.078125 C 5.003906 -0.316406 4.90625 -0.578125 4.90625 -0.859375 L 4.90625 -16 L 4.75 -16 L 2.890625 -13.40625 C 2.734375 -13.195312 2.570312 -13.023438 2.40625 -12.890625 C 2.238281 -12.753906 2.015625 -12.6875 1.734375 -12.6875 C 1.367188 -12.6875 1.082031 -12.804688 0.875 -13.046875 C 0.675781 -13.285156 0.578125 -13.550781 0.578125 -13.84375 C 0.578125 -14.125 0.625 -14.363281 0.71875 -14.5625 C 0.757812 -14.65625 0.804688 -14.75 0.859375 -14.84375 L 4.328125 -19.609375 C 4.535156 -19.867188 4.757812 -20.078125 5 -20.234375 C 5.238281 -20.390625 5.539062 -20.46875 5.90625 -20.46875 C 6.269531 -20.46875 6.578125 -20.34375 6.828125 -20.09375 C 7.078125 -19.84375 7.203125 -19.535156 7.203125 -19.171875 L 7.203125 -0.859375 C 7.203125 -0.578125 7.101562 -0.316406 6.90625 -0.078125 C 6.707031 0.160156 6.421875 0.28125 6.046875 0.28125 Z M 6.046875 0.28125 "/></g></g></g><g fill="#89573b" fill-opacity="1"><g transform="translate(1183.034571, 938.320002)"><g><path d="M 6.484375 0.578125 C 5.828125 0.578125 5.238281 0.484375 4.71875 0.296875 C 4.207031 0.117188 3.738281 -0.113281 3.3125 -0.40625 C 2.894531 -0.707031 2.53125 -1.046875 2.21875 -1.421875 C 1.914062 -1.796875 1.65625 -2.1875 1.4375 -2.59375 C 1.382812 -2.707031 1.335938 -2.820312 1.296875 -2.9375 C 1.203125 -3.164062 1.15625 -3.390625 1.15625 -3.609375 C 1.15625 -3.972656 1.25 -4.253906 1.4375 -4.453125 C 1.632812 -4.648438 1.875 -4.75 2.15625 -4.75 C 2.71875 -4.75 3.148438 -4.414062 3.453125 -3.75 C 3.742188 -3.09375 4.140625 -2.539062 4.640625 -2.09375 C 5.140625 -1.65625 5.753906 -1.4375 6.484375 -1.4375 C 6.910156 -1.4375 7.320312 -1.53125 7.71875 -1.71875 C 8.125 -1.914062 8.476562 -2.210938 8.78125 -2.609375 C 9.09375 -3.003906 9.335938 -3.488281 9.515625 -4.0625 C 9.703125 -4.632812 9.796875 -5.296875 9.796875 -6.046875 C 9.796875 -6.796875 9.703125 -7.457031 9.515625 -8.03125 C 9.335938 -8.613281 9.09375 -9.101562 8.78125 -9.5 C 8.476562 -9.894531 8.125 -10.1875 7.71875 -10.375 C 7.320312 -10.570312 6.910156 -10.671875 6.484375 -10.671875 C 5.984375 -10.671875 5.566406 -10.585938 5.234375 -10.421875 C 4.910156 -10.253906 4.625 -10.070312 4.375 -9.875 C 4.125 -9.675781 3.898438 -9.492188 3.703125 -9.328125 C 3.503906 -9.160156 3.28125 -9.078125 3.03125 -9.078125 C 2.664062 -9.078125 2.378906 -9.195312 2.171875 -9.4375 C 1.972656 -9.675781 1.875 -9.941406 1.875 -10.234375 L 1.875 -19.03125 C 1.875 -19.800781 2.257812 -20.1875 3.03125 -20.1875 L 10.375 -20.1875 C 10.738281 -20.1875 11.019531 -20.085938 11.21875 -19.890625 C 11.425781 -19.703125 11.53125 -19.460938 11.53125 -19.171875 C 11.53125 -18.878906 11.425781 -18.632812 11.21875 -18.4375 C 11.019531 -18.25 10.738281 -18.15625 10.375 -18.15625 L 4.1875 -18.15625 L 4.1875 -11.8125 C 4.414062 -11.96875 4.671875 -12.113281 4.953125 -12.25 C 5.203125 -12.34375 5.488281 -12.4375 5.8125 -12.53125 C 6.144531 -12.632812 6.515625 -12.6875 6.921875 -12.6875 C 7.609375 -12.6875 8.265625 -12.535156 8.890625 -12.234375 C 9.515625 -11.941406 10.0625 -11.507812 10.53125 -10.9375 C 11.007812 -10.375 11.390625 -9.675781 11.671875 -8.84375 C 11.960938 -8.019531 12.109375 -7.085938 12.109375 -6.046875 C 12.109375 -5.015625 11.960938 -4.082031 11.671875 -3.25 C 11.390625 -2.425781 10.992188 -1.726562 10.484375 -1.15625 C 9.972656 -0.59375 9.375 -0.164062 8.6875 0.125 C 8.007812 0.425781 7.273438 0.578125 6.484375 0.578125 Z M 6.484375 0.578125 "/></g></g></g><g fill="#ffffff" fill-opacity="1"><g transform="translate(1026.471374, 1357.399692)"><g><path d="M 3.921875 0.78125 C 2.929688 0.78125 2.160156 0.457031 1.609375 -0.1875 C 1.054688 -0.84375 0.78125 -1.566406 0.78125 -2.359375 C 0.78125 -3.035156 0.910156 -3.769531 1.171875 -4.5625 C 1.285156 -4.976562 1.421875 -5.421875 1.578125 -5.890625 L 14.546875 -52.265625 C 15.378906 -55.148438 16.945312 -56.59375 19.25 -56.59375 C 21.5625 -56.59375 23.132812 -55.148438 23.96875 -52.265625 L 36.9375 -5.890625 C 37.039062 -5.421875 37.171875 -4.976562 37.328125 -4.5625 C 37.429688 -4.195312 37.519531 -3.800781 37.59375 -3.375 C 37.675781 -2.957031 37.71875 -2.617188 37.71875 -2.359375 C 37.71875 -1.566406 37.441406 -0.84375 36.890625 -0.1875 C 36.347656 0.457031 35.578125 0.78125 34.578125 0.78125 C 33.796875 0.78125 33.113281 0.53125 32.53125 0.03125 C 31.957031 -0.457031 31.59375 -0.992188 31.4375 -1.578125 L 27.90625 -15.328125 L 10.609375 -15.328125 L 7.078125 -1.578125 C 6.921875 -0.992188 6.550781 -0.457031 5.96875 0.03125 C 5.394531 0.53125 4.710938 0.78125 3.921875 0.78125 Z M 26.328125 -20.828125 L 19.40625 -47.15625 L 19.09375 -47.15625 L 12.1875 -20.828125 Z M 26.328125 -20.828125 "/></g></g></g><g fill="#ffffff" fill-opacity="1"><g transform="translate(1109.858343, 1357.399692)"><g><path d="M 8.25 0 C 7.257812 0 6.488281 -0.328125 5.9375 -0.984375 C 5.382812 -1.640625 5.109375 -2.359375 5.109375 -3.140625 L 5.109375 -51.875 C 5.109375 -52.65625 5.382812 -53.375 5.9375 -54.03125 C 6.488281 -54.6875 7.257812 -55.015625 8.25 -55.015625 L 19.25 -55.015625 C 21.71875 -55.015625 23.957031 -54.609375 25.96875 -53.796875 C 27.988281 -52.984375 29.734375 -51.84375 31.203125 -50.375 C 32.671875 -48.90625 33.796875 -47.132812 34.578125 -45.0625 C 35.367188 -43 35.765625 -40.6875 35.765625 -38.125 L 35.765625 -16.890625 C 35.765625 -14.328125 35.367188 -12.007812 34.578125 -9.9375 C 33.796875 -7.875 32.671875 -6.109375 31.203125 -4.640625 C 29.734375 -3.171875 27.988281 -2.03125 25.96875 -1.21875 C 23.957031 -0.40625 21.71875 0 19.25 0 Z M 19.25 -5.5 C 22.238281 -5.5 24.6875 -6.503906 26.59375 -8.515625 C 28.507812 -10.535156 29.46875 -13.328125 29.46875 -16.890625 L 29.46875 -38.125 C 29.46875 -41.6875 28.507812 -44.472656 26.59375 -46.484375 C 24.6875 -48.503906 22.238281 -49.515625 19.25 -49.515625 L 11.390625 -49.515625 L 11.390625 -5.5 Z M 19.25 -5.5 "/></g></g></g><g fill="#ffffff" fill-opacity="1"><g transform="translate(1195.210067, 1357.399692)"><g><path d="M 19.25 1.578125 C 18.050781 1.578125 17.046875 1.222656 16.234375 0.515625 C 15.421875 -0.191406 14.859375 -1.148438 14.546875 -2.359375 L 1.96875 -49.90625 C 1.863281 -50.21875 1.785156 -50.53125 1.734375 -50.84375 C 1.679688 -51.113281 1.640625 -51.40625 1.609375 -51.71875 C 1.585938 -52.03125 1.578125 -52.34375 1.578125 -52.65625 C 1.578125 -53.445312 1.847656 -54.164062 2.390625 -54.8125 C 2.941406 -55.46875 3.71875 -55.796875 4.71875 -55.796875 C 5.5 -55.796875 6.164062 -55.535156 6.71875 -55.015625 C 7.269531 -54.492188 7.648438 -53.835938 7.859375 -53.046875 L 19.09375 -9.03125 L 19.40625 -9.03125 L 30.65625 -53.046875 C 30.863281 -53.835938 31.238281 -54.492188 31.78125 -55.015625 C 32.332031 -55.535156 33.003906 -55.796875 33.796875 -55.796875 C 34.785156 -55.796875 35.554688 -55.46875 36.109375 -54.8125 C 36.660156 -54.164062 36.9375 -53.445312 36.9375 -52.65625 C 36.9375 -52.34375 36.910156 -52.03125 36.859375 -51.71875 C 36.804688 -51.40625 36.753906 -51.113281 36.703125 -50.84375 C 36.648438 -50.53125 36.597656 -50.21875 36.546875 -49.90625 L 23.96875 -2.359375 C 23.65625 -1.148438 23.09375 -0.191406 22.28125 0.515625 C 21.46875 1.222656 20.457031 1.578125 19.25 1.578125 Z M 19.25 1.578125 "/></g></g></g><g fill="#ffffff" fill-opacity="1"><g transform="translate(1278.597044, 1357.399692)"><g><path d="M 8.25 0 C 7.257812 0 6.488281 -0.328125 5.9375 -0.984375 C 5.382812 -1.640625 5.109375 -2.359375 5.109375 -3.140625 L 5.109375 -51.875 C 5.109375 -52.65625 5.382812 -53.375 5.9375 -54.03125 C 6.488281 -54.6875 7.257812 -55.015625 8.25 -55.015625 L 31.4375 -55.015625 C 32.4375 -55.015625 33.207031 -54.75 33.75 -54.21875 C 34.300781 -53.695312 34.578125 -53.046875 34.578125 -52.265625 C 34.578125 -51.472656 34.300781 -50.816406 33.75 -50.296875 C 33.207031 -49.773438 32.4375 -49.515625 31.4375 -49.515625 L 11.390625 -49.515625 L 11.390625 -30.65625 L 25.9375 -30.65625 C 26.925781 -30.65625 27.695312 -30.390625 28.25 -29.859375 C 28.800781 -29.335938 29.078125 -28.6875 29.078125 -27.90625 C 29.078125 -27.113281 28.800781 -26.457031 28.25 -25.9375 C 27.695312 -25.414062 26.925781 -25.15625 25.9375 -25.15625 L 11.390625 -25.15625 L 11.390625 -5.5 L 31.828125 -5.5 C 32.828125 -5.5 33.597656 -5.234375 34.140625 -4.703125 C 34.691406 -4.179688 34.96875 -3.53125 34.96875 -2.75 C 34.96875 -1.96875 34.691406 -1.3125 34.140625 -0.78125 C 33.597656 -0.257812 32.828125 0 31.828125 0 Z M 8.25 0 "/></g></g></g><g fill="#ffffff" fill-opacity="1"><g transform="translate(1359.626311, 1357.399692)"><g><path d="M 8.25 0.78125 C 7.257812 0.78125 6.488281 0.457031 5.9375 -0.1875 C 5.382812 -0.84375 5.109375 -1.566406 5.109375 -2.359375 L 5.109375 -52.265625 C 5.109375 -53.265625 5.445312 -54.101562 6.125 -54.78125 C 6.8125 -55.457031 7.648438 -55.796875 8.640625 -55.796875 C 10.523438 -55.796875 11.96875 -54.75 12.96875 -52.65625 L 30.65625 -14.140625 L 31.046875 -14.140625 L 31.046875 -52.65625 C 31.046875 -53.445312 31.316406 -54.164062 31.859375 -54.8125 C 32.410156 -55.46875 33.1875 -55.796875 34.1875 -55.796875 C 35.1875 -55.796875 35.957031 -55.46875 36.5 -54.8125 C 37.050781 -54.164062 37.328125 -53.445312 37.328125 -52.65625 L 37.328125 -2.75 C 37.328125 -1.75 36.984375 -0.910156 36.296875 -0.234375 C 35.617188 0.441406 34.785156 0.78125 33.796875 0.78125 C 31.910156 0.78125 30.46875 -0.265625 29.46875 -2.359375 L 11.78125 -40.875 L 11.390625 -40.875 L 11.390625 -2.359375 C 11.390625 -1.566406 11.113281 -0.84375 10.5625 -0.1875 C 10.019531 0.457031 9.25 0.78125 8.25 0.78125 Z M 8.25 0.78125 "/></g></g></g><g fill="#ffffff" fill-opacity="1"><g transform="translate(1446.942784, 1357.399692)"><g><path d="M 16.5 0.78125 C 15.507812 0.78125 14.738281 0.457031 14.1875 -0.1875 C 13.632812 -0.84375 13.359375 -1.566406 13.359375 -2.359375 L 13.359375 -49.515625 L 3.53125 -49.515625 C 2.539062 -49.515625 1.769531 -49.773438 1.21875 -50.296875 C 0.664062 -50.816406 0.390625 -51.472656 0.390625 -52.265625 C 0.390625 -53.046875 0.664062 -53.695312 1.21875 -54.21875 C 1.769531 -54.75 2.539062 -55.015625 3.53125 -55.015625 L 29.46875 -55.015625 C 30.46875 -55.015625 31.238281 -54.75 31.78125 -54.21875 C 32.332031 -53.695312 32.609375 -53.046875 32.609375 -52.265625 C 32.609375 -51.472656 32.332031 -50.816406 31.78125 -50.296875 C 31.238281 -49.773438 30.46875 -49.515625 29.46875 -49.515625 L 19.640625 -49.515625 L 19.640625 -2.359375 C 19.640625 -1.566406 19.363281 -0.84375 18.8125 -0.1875 C 18.269531 0.457031 17.5 0.78125 16.5 0.78125 Z M 16.5 0.78125 "/></g></g></g><g fill="#ffffff" fill-opacity="1"><g transform="translate(1524.828449, 1357.399692)"><g><path d="M 20.828125 1.578125 C 18.472656 1.578125 16.320312 1.195312 14.375 0.4375 C 12.4375 -0.320312 10.785156 -1.410156 9.421875 -2.828125 C 8.066406 -4.242188 7.007812 -5.972656 6.25 -8.015625 C 5.488281 -10.054688 5.109375 -12.363281 5.109375 -14.9375 L 5.109375 -52.65625 C 5.109375 -53.445312 5.382812 -54.164062 5.9375 -54.8125 C 6.488281 -55.46875 7.257812 -55.796875 8.25 -55.796875 C 9.25 -55.796875 10.019531 -55.46875 10.5625 -54.8125 C 11.113281 -54.164062 11.390625 -53.445312 11.390625 -52.65625 L 11.390625 -14.9375 C 11.390625 -11.375 12.265625 -8.644531 14.015625 -6.75 C 15.773438 -4.863281 18.046875 -3.921875 20.828125 -3.921875 C 23.609375 -3.921875 25.875 -4.863281 27.625 -6.75 C 29.382812 -8.644531 30.265625 -11.375 30.265625 -14.9375 L 30.265625 -52.65625 C 30.265625 -53.445312 30.535156 -54.164062 31.078125 -54.8125 C 31.628906 -55.46875 32.40625 -55.796875 33.40625 -55.796875 C 34.394531 -55.796875 35.164062 -55.46875 35.71875 -54.8125 C 36.269531 -54.164062 36.546875 -53.445312 36.546875 -52.65625 L 36.546875 -14.9375 C 36.546875 -12.363281 36.164062 -10.054688 35.40625 -8.015625 C 34.644531 -5.972656 33.582031 -4.242188 32.21875 -2.828125 C 30.863281 -1.410156 29.210938 -0.320312 27.265625 0.4375 C 25.328125 1.195312 23.179688 1.578125 20.828125 1.578125 Z M 20.828125 1.578125 "/></g></g></g><g fill="#ffffff" fill-opacity="1"><g transform="translate(1611.359014, 1357.399692)"><g><path d="M 8.25 0.78125 C 7.257812 0.78125 6.488281 0.457031 5.9375 -0.1875 C 5.382812 -0.84375 5.109375 -1.566406 5.109375 -2.359375 L 5.109375 -51.875 C 5.109375 -52.65625 5.382812 -53.375 5.9375 -54.03125 C 6.488281 -54.6875 7.257812 -55.015625 8.25 -55.015625 L 19.640625 -55.015625 C 21.898438 -55.015625 23.972656 -54.632812 25.859375 -53.875 C 27.742188 -53.113281 29.351562 -52.039062 30.6875 -50.65625 C 32.019531 -49.269531 33.066406 -47.578125 33.828125 -45.578125 C 34.585938 -43.585938 34.96875 -41.363281 34.96875 -38.90625 C 34.96875 -36.019531 34.535156 -33.644531 33.671875 -31.78125 C 32.804688 -29.925781 31.851562 -28.445312 30.8125 -27.34375 C 29.601562 -26.039062 28.238281 -25.046875 26.71875 -24.359375 L 26.71875 -23.96875 L 36.546875 -4.71875 C 36.648438 -4.507812 36.78125 -4.273438 36.9375 -4.015625 C 37.039062 -3.742188 37.128906 -3.460938 37.203125 -3.171875 C 37.285156 -2.890625 37.328125 -2.617188 37.328125 -2.359375 C 37.328125 -1.566406 37.050781 -0.84375 36.5 -0.1875 C 35.957031 0.457031 35.1875 0.78125 34.1875 0.78125 C 33.664062 0.78125 33.242188 0.703125 32.921875 0.546875 C 32.609375 0.390625 32.320312 0.207031 32.0625 0 C 31.800781 -0.207031 31.59375 -0.46875 31.4375 -0.78125 L 20.4375 -22.796875 L 11.390625 -22.796875 L 11.390625 -2.359375 C 11.390625 -1.566406 11.113281 -0.84375 10.5625 -0.1875 C 10.019531 0.457031 9.25 0.78125 8.25 0.78125 Z M 19.640625 -28.296875 C 22.210938 -28.296875 24.363281 -29.222656 26.09375 -31.078125 C 27.820312 -32.941406 28.6875 -35.550781 28.6875 -38.90625 C 28.6875 -42.257812 27.820312 -44.863281 26.09375 -46.71875 C 24.363281 -48.582031 22.210938 -49.515625 19.640625 -49.515625 L 11.390625 -49.515625 L 11.390625 -28.296875 Z M 19.640625 -28.296875 "/></g></g></g><g fill="#ffffff" fill-opacity="1"><g transform="translate(1695.531885, 1357.399692)"><g><path d="M 8.25 0 C 7.257812 0 6.488281 -0.328125 5.9375 -0.984375 C 5.382812 -1.640625 5.109375 -2.359375 5.109375 -3.140625 L 5.109375 -51.875 C 5.109375 -52.65625 5.382812 -53.375 5.9375 -54.03125 C 6.488281 -54.6875 7.257812 -55.015625 8.25 -55.015625 L 31.4375 -55.015625 C 32.4375 -55.015625 33.207031 -54.75 33.75 -54.21875 C 34.300781 -53.695312 34.578125 -53.046875 34.578125 -52.265625 C 34.578125 -51.472656 34.300781 -50.816406 33.75 -50.296875 C 33.207031 -49.773438 32.4375 -49.515625 31.4375 -49.515625 L 11.390625 -49.515625 L 11.390625 -30.65625 L 25.9375 -30.65625 C 26.925781 -30.65625 27.695312 -30.390625 28.25 -29.859375 C 28.800781 -29.335938 29.078125 -28.6875 29.078125 -27.90625 C 29.078125 -27.113281 28.800781 -26.457031 28.25 -25.9375 C 27.695312 -25.414062 26.925781 -25.15625 25.9375 -25.15625 L 11.390625 -25.15625 L 11.390625 -5.5 L 31.828125 -5.5 C 32.828125 -5.5 33.597656 -5.234375 34.140625 -4.703125 C 34.691406 -4.179688 34.96875 -3.53125 34.96875 -2.75 C 34.96875 -1.96875 34.691406 -1.3125 34.140625 -0.78125 C 33.597656 -0.257812 32.828125 0 31.828125 0 Z M 8.25 0 "/></g></g></g><g fill="#ffffff" fill-opacity="1"><g transform="translate(1776.561174, 1357.399692)"><g><path d="M 16.890625 1.578125 C 14.898438 1.578125 13.160156 1.351562 11.671875 0.90625 C 10.179688 0.457031 8.867188 -0.144531 7.734375 -0.90625 C 6.609375 -1.664062 5.640625 -2.539062 4.828125 -3.53125 C 4.015625 -4.53125 3.320312 -5.582031 2.75 -6.6875 C 2.539062 -7.15625 2.332031 -7.597656 2.125 -8.015625 C 1.757812 -8.859375 1.578125 -9.59375 1.578125 -10.21875 C 1.578125 -11 1.847656 -11.71875 2.390625 -12.375 C 2.941406 -13.03125 3.71875 -13.359375 4.71875 -13.359375 C 5.5 -13.359375 6.140625 -13.109375 6.640625 -12.609375 C 7.140625 -12.117188 7.546875 -11.453125 7.859375 -10.609375 C 8.640625 -8.617188 9.75 -7.003906 11.1875 -5.765625 C 12.632812 -4.535156 14.535156 -3.921875 16.890625 -3.921875 C 19.671875 -3.921875 21.9375 -4.835938 23.6875 -6.671875 C 25.445312 -8.515625 26.328125 -11.003906 26.328125 -14.140625 C 26.328125 -16.347656 25.75 -18.15625 24.59375 -19.5625 C 23.445312 -20.976562 21.992188 -22.195312 20.234375 -23.21875 C 18.484375 -24.238281 16.582031 -25.222656 14.53125 -26.171875 C 12.488281 -27.117188 10.585938 -28.257812 8.828125 -29.59375 C 7.078125 -30.925781 5.625 -32.5625 4.46875 -34.5 C 3.320312 -36.4375 2.75 -38.953125 2.75 -42.046875 C 2.75 -44.191406 3.101562 -46.15625 3.8125 -47.9375 C 4.519531 -49.71875 5.5 -51.25 6.75 -52.53125 C 8.007812 -53.820312 9.503906 -54.820312 11.234375 -55.53125 C 12.960938 -56.238281 14.847656 -56.59375 16.890625 -56.59375 C 18.671875 -56.59375 20.269531 -56.367188 21.6875 -55.921875 C 23.101562 -55.472656 24.382812 -54.867188 25.53125 -54.109375 C 26.6875 -53.347656 27.679688 -52.46875 28.515625 -51.46875 C 29.359375 -50.476562 30.070312 -49.429688 30.65625 -48.328125 C 30.757812 -48.015625 30.890625 -47.703125 31.046875 -47.390625 C 31.148438 -47.128906 31.238281 -46.828125 31.3125 -46.484375 C 31.394531 -46.148438 31.4375 -45.847656 31.4375 -45.578125 C 31.4375 -44.585938 31.171875 -43.816406 30.640625 -43.265625 C 30.117188 -42.710938 29.46875 -42.4375 28.6875 -42.4375 C 27.164062 -42.4375 25.988281 -43.351562 25.15625 -45.1875 C 24.363281 -46.96875 23.285156 -48.394531 21.921875 -49.46875 C 20.566406 -50.539062 18.890625 -51.078125 16.890625 -51.078125 C 14.691406 -51.078125 12.832031 -50.265625 11.3125 -48.640625 C 9.789062 -47.023438 9.03125 -44.828125 9.03125 -42.046875 C 9.03125 -39.796875 9.609375 -37.972656 10.765625 -36.578125 C 11.921875 -35.191406 13.375 -33.988281 15.125 -32.96875 C 16.882812 -31.945312 18.785156 -30.960938 20.828125 -30.015625 C 22.867188 -29.078125 24.765625 -27.9375 26.515625 -26.59375 C 28.273438 -25.257812 29.726562 -23.625 30.875 -21.6875 C 32.03125 -19.75 32.609375 -17.234375 32.609375 -14.140625 C 32.609375 -11.785156 32.226562 -9.640625 31.46875 -7.703125 C 30.71875 -5.765625 29.660156 -4.113281 28.296875 -2.75 C 26.929688 -1.382812 25.28125 -0.320312 23.34375 0.4375 C 21.40625 1.195312 19.253906 1.578125 16.890625 1.578125 Z M 16.890625 1.578125 "/></g></g></g><g fill="#33443c" fill-opacity="1"><g transform="translate(963.178875, 1094.490711)"><g><path d="M 120.46875 -68.25 C 128.28125 -68.019531 134.222656 -65.863281 138.296875 -61.78125 C 142.378906 -57.707031 144.421875 -51.648438 144.421875 -43.609375 L 144.421875 -28.09375 C 144.421875 -18.320312 142.148438 -11.195312 137.609375 -6.71875 C 133.078125 -2.238281 125.984375 0 116.328125 0 L 19.8125 0 C 17.519531 0 16.375 -1.148438 16.375 -3.453125 L 16.375 -117.1875 C 16.375 -119.488281 17.519531 -120.640625 19.8125 -120.640625 L 102.890625 -120.640625 C 111.847656 -120.640625 118.476562 -118.628906 122.78125 -114.609375 C 127.09375 -110.585938 129.25 -104.554688 129.25 -96.515625 L 129.25 -87.71875 C 129.25 -78.1875 126.320312 -72.15625 120.46875 -69.625 Z M 43.953125 -99.4375 L 43.953125 -72.390625 L 92.03125 -72.390625 C 95.707031 -72.390625 98.347656 -73.191406 99.953125 -74.796875 C 101.566406 -76.398438 102.375 -79.039062 102.375 -82.71875 L 102.375 -89.28125 C 102.375 -92.832031 101.597656 -95.410156 100.046875 -97.015625 C 98.492188 -98.628906 95.9375 -99.4375 92.375 -99.4375 Z M 116.84375 -40.84375 C 116.84375 -44.519531 116.035156 -47.160156 114.421875 -48.765625 C 112.816406 -50.378906 110.125 -51.1875 106.34375 -51.1875 L 43.953125 -51.1875 L 43.953125 -21.375 L 106.34375 -21.375 C 110.125 -21.375 112.816406 -22.175781 114.421875 -23.78125 C 116.035156 -25.394531 116.84375 -28.039062 116.84375 -31.71875 Z M 116.84375 -40.84375 "/></g></g></g><g fill="#33443c" fill-opacity="1"><g transform="translate(1117.423031, 1094.490711)"><g><path d="M 125.46875 -22.921875 C 126.726562 -22.921875 127.613281 -22.632812 128.125 -22.0625 C 128.644531 -21.488281 128.90625 -20.566406 128.90625 -19.296875 L 128.90625 -3.453125 C 128.90625 -1.148438 127.757812 0 125.46875 0 L 19.8125 0 C 17.519531 0 16.375 -1.148438 16.375 -3.453125 L 16.375 -117.1875 C 16.375 -119.488281 17.519531 -120.640625 19.8125 -120.640625 L 123.75 -120.640625 C 126.039062 -120.640625 127.1875 -119.488281 127.1875 -117.1875 L 127.1875 -101.34375 C 127.1875 -99.039062 126.039062 -97.890625 123.75 -97.890625 L 43.953125 -97.890625 L 43.953125 -71.875 L 104.265625 -71.875 C 105.523438 -71.875 106.414062 -71.582031 106.9375 -71 C 107.457031 -70.425781 107.71875 -69.507812 107.71875 -68.25 L 107.71875 -53.25 C 107.71875 -50.957031 106.566406 -49.8125 104.265625 -49.8125 L 43.953125 -49.8125 L 43.953125 -22.921875 Z M 125.46875 -22.921875 "/></g></g></g><g fill="#33443c" fill-opacity="1"><g transform="translate(1254.605509, 1094.490711)"><g><path d="M 54.109375 0 C 52.847656 0 51.957031 -0.253906 51.4375 -0.765625 C 50.925781 -1.285156 50.671875 -2.179688 50.671875 -3.453125 L 50.671875 -44.640625 L -2.40625 -114.78125 C -3.101562 -115.8125 -3.453125 -116.785156 -3.453125 -117.703125 C -3.453125 -119.660156 -2.015625 -120.640625 0.859375 -120.640625 L 21.71875 -120.640625 C 22.976562 -120.640625 24.039062 -120.4375 24.90625 -120.03125 C 25.769531 -119.632812 26.601562 -118.921875 27.40625 -117.890625 L 63.765625 -69.28125 L 64.96875 -69.28125 L 101.515625 -118.0625 C 102.316406 -118.976562 103.117188 -119.632812 103.921875 -120.03125 C 104.722656 -120.4375 105.757812 -120.640625 107.03125 -120.640625 L 128.046875 -120.640625 C 129.429688 -120.640625 130.46875 -120.378906 131.15625 -119.859375 C 131.84375 -119.347656 132.1875 -118.628906 132.1875 -117.703125 C 132.1875 -116.898438 131.84375 -115.984375 131.15625 -114.953125 L 78.25 -44.640625 L 78.25 -3.453125 C 78.25 -1.148438 77.097656 0 74.796875 0 Z M 54.109375 0 "/></g></g></g><g fill="#33443c" fill-opacity="1"><g transform="translate(1383.343349, 1094.490711)"><g><path d="M 46.359375 0.515625 C 25.679688 0.515625 15.34375 -9.878906 15.34375 -30.671875 L 15.34375 -90.140625 C 15.34375 -110.816406 25.679688 -121.15625 46.359375 -121.15625 L 119.609375 -121.15625 C 140.285156 -121.15625 150.625 -110.816406 150.625 -90.140625 L 150.625 -30.671875 C 150.625 -9.878906 140.285156 0.515625 119.609375 0.515625 Z M 110.984375 -23.09375 C 115.234375 -23.09375 118.304688 -24.039062 120.203125 -25.9375 C 122.097656 -27.832031 123.046875 -30.90625 123.046875 -35.15625 L 123.046875 -85.484375 C 123.046875 -89.734375 122.097656 -92.832031 120.203125 -94.78125 C 118.304688 -96.738281 115.234375 -97.71875 110.984375 -97.71875 L 55.15625 -97.71875 C 50.894531 -97.71875 47.785156 -96.738281 45.828125 -94.78125 C 43.878906 -92.832031 42.90625 -89.734375 42.90625 -85.484375 L 42.90625 -35.15625 C 42.90625 -30.90625 43.878906 -27.832031 45.828125 -25.9375 C 47.785156 -24.039062 50.894531 -23.09375 55.15625 -23.09375 Z M 110.984375 -23.09375 "/></g></g></g><g fill="#33443c" fill-opacity="1"><g transform="translate(1549.306619, 1094.490711)"><g><path d="M 19.8125 0 C 17.519531 0 16.375 -1.148438 16.375 -3.453125 L 16.375 -117.1875 C 16.375 -119.488281 17.519531 -120.640625 19.8125 -120.640625 L 45.84375 -120.640625 C 48.03125 -120.640625 49.867188 -119.722656 51.359375 -117.890625 L 116.5 -36.703125 L 117.890625 -36.703125 L 117.890625 -117.1875 C 117.890625 -119.488281 119.035156 -120.640625 121.328125 -120.640625 L 141.84375 -120.640625 C 144.132812 -120.640625 145.28125 -119.488281 145.28125 -117.1875 L 145.28125 -3.453125 C 145.28125 -1.148438 144.132812 0 141.84375 0 L 116.15625 0 C 115.007812 0 114.03125 -0.226562 113.21875 -0.6875 C 112.414062 -1.144531 111.613281 -1.894531 110.8125 -2.9375 L 45.15625 -84.453125 L 43.78125 -84.453125 L 43.78125 -3.453125 C 43.78125 -1.148438 42.628906 0 40.328125 0 Z M 19.8125 0 "/></g></g></g><g fill="#33443c" fill-opacity="1"><g transform="translate(1710.961403, 1094.490711)"><g><path d="M 115.296875 -120.640625 C 135.972656 -120.640625 146.3125 -110.359375 146.3125 -89.796875 L 146.3125 -31.015625 C 146.3125 -10.335938 135.972656 0 115.296875 0 L 19.8125 0 C 17.519531 0 16.375 -1.148438 16.375 -3.453125 L 16.375 -117.1875 C 16.375 -119.488281 17.519531 -120.640625 19.8125 -120.640625 Z M 118.75 -84.796875 C 118.75 -89.046875 117.769531 -92.144531 115.8125 -94.09375 C 113.863281 -96.050781 110.765625 -97.03125 106.515625 -97.03125 L 43.953125 -97.03125 L 43.953125 -23.78125 L 106.515625 -23.78125 C 110.765625 -23.78125 113.863281 -24.753906 115.8125 -26.703125 C 117.769531 -28.660156 118.75 -31.765625 118.75 -36.015625 Z M 118.75 -84.796875 "/></g></g></g></svg>